<?xml version="1.0" encoding="UTF-8"?>
<svg id="Layer_2" data-name="Layer 2" xmlns="http://www.w3.org/2000/svg" viewBox="0 0 723.82 869.76">
  <defs>
    <style>
      .cls-1, .cls-2 {
        stroke-width: 0px;
      }

      .cls-2 {
        fill: #fff;
      }
    </style>
  </defs>
  <g id="Layer_1-2" data-name="Layer 1">
    <g>
      <path class="cls-1" d="m546.79,199.98c1.86,7.57-.04,14.76-1.97,22.02-2.18,8.2,2.84,17.54,9.34,23.04,12.1,10.26,25.8,18.78,35.09,32.3,2.87,4.18,8.14,6.71,12.32,9.98,8.15,6.38,13.12,14.56,13.69,25.03.39,7.18-2.3,13.67-11.49,13.43-5.62-.14-11.25-.43-16.86-.3-1.92.05-4.85.69-5.47,1.96-.8,1.64-.05,4.28.57,6.33,1.02,3.42,2.6,6.67,3.7,10.07,1.17,3.62,2.24,7.29,3.04,11,1.04,4.84,1.86,9.74,2.61,14.63.97,6.4,1.71,12.83,2.67,19.23,1.37,9.18,3.33,18.31,4.12,27.54.67,7.79,2.13,15.12,6.06,21.91,1.91,3.3,4.4,5.32,8.45,4.99,4.24-.34,7.44-2.37,8.8-6.31,3.3-9.56,7.23-18.88,7.54-29.35.24-8.11,2.56-16.16,2.93-24.28.56-12.28.59-24.62.15-36.9-.33-9.07-1.25-18.2-2.88-27.12-1.3-7.09-4.14-13.88-6.17-20.84-2.43-8.36-4.69-16.78-7.09-25.15-1.23-4.28-2.25-8.66-3.98-12.73-3.1-7.29-6.62-14.4-10.06-21.54-3.8-7.9-7.78-15.72-11.56-23.64-3.85-8.05-7.51-16.18-11.32-24.25-3.43-7.28-7.04-14.48-10.39-21.79-2.54-5.55-4.6-11.31-7.23-16.81-1.4-2.93-3.84-5.36-5.28-8.28-1.05-2.13-2.43-5.38-1.55-6.93,1.79-3.13,5.52-1.9,7.34.13,5.51,6.14,10.81,12.52,15.62,19.22,4.74,6.59,9.47,13.36,12.93,20.65,3.34,7.06,8.12,13.42,9.1,21.83.79,6.75,3.95,13.33,6.71,19.71,5.86,13.54,12.51,26.75,18.13,40.38,3.76,9.14,6.42,18.74,9.37,28.19,11.96,38.33,12.29,77.45,7.91,116.91-1.04,9.42-1.75,18.9-2.07,28.37-.07,2.22,1.56,5.17,3.35,6.54,1.17.89,4.15-.22,6.15-.93,2.01-.72,3.77-2.11,5.69-3.12,4.2-2.21,5.83-5.54,6.39-10.39,1.09-9.37,3.51-18.58,4.84-27.93,1.29-9.04,2.67-18.17,2.66-27.26-.02-22.3.2-44.69-1.67-66.87-1.11-13.21-5.73-26.18-9.25-39.12-3.49-12.82-7.37-25.54-11.5-38.17-2.62-8.02-6-15.8-9.04-23.69-3.03-7.86-5.77-15.85-9.18-23.55-2.54-5.73-6.07-11-8.91-16.6-7.12-14.02-17.71-25.55-27.21-37.83-11.61-15-23.9-29.47-36.03-44.05-7.11-8.55-14.55-16.82-21.67-25.36-.99-1.19-1.82-3.88-1.18-4.74.93-1.26,3.62-2.49,4.91-2.01,8.62,3.19,17.55,6,25.46,10.54,11.52,6.61,17.84,18.65,26.48,28.29,10.49,11.7,17.32,25.47,23.97,39.46,2.76,5.8,6.65,11.06,9.89,16.65,3.07,5.29,6.01,10.65,8.92,16.03,3.85,7.11,7.78,14.18,11.34,21.43,1.37,2.78,1.45,6.2,2.8,8.99.89,1.84,3.01,3.07,4.59,4.58,1.14-1.57,3.19-3.1,3.28-4.73.56-10.46,1.27-21.02-4.49-30.58-.51-.84-1-1.82-1.09-2.77-1.36-14.86-8.57-27.85-13.04-41.72-3.23-10.03-4.72-20.63-6.99-30.97-.57-2.6-.81-5.34-1.82-7.76-4.26-10.23-8.28-20.59-13.28-30.46-6.24-12.3-13.35-24.16-20.09-36.2-.24-.43-.78-.81-.81-1.24-.16-2.36-.21-4.72-.3-7.08,2.4.95,5.72,1.21,7.04,2.97,5.98,7.98,10.95,16.73,17.13,24.55,10,12.64,14.8,27.78,21.59,41.98,4.42,9.25,9.55,18.16,13.79,27.48,3.02,6.64,5.65,13.56,7.45,20.61,3.17,12.36,5.45,24.95,8.33,37.38,1.64,7.06,3.69,14.02,5.65,21,2.51,8.93,5.23,17.81,7.66,26.77,1.13,4.17,1.18,8.71,2.78,12.66,5.19,12.86,4.55,26.48,5.93,39.84.19,1.82-.04,3.78.56,5.44,3.79,10.44,2.86,21.29,3.4,32.08,1.7,33.75-2.55,67.19-4.67,100.73-.77,12.24-2.76,24.41-4.44,36.57-.4,2.9-1.78,5.68-2.78,8.49-2.28,6.35-2.98,12.41.95,18.64,3.43,5.43,6.51,11.18,8.94,17.13,3.13,7.68,10.09,11.77,15.02,17.73,4.84,5.85,9.91,11.72,13.45,18.34,2.17,4.05,1.69,9.53,2.34,14.37.19,1.45-.12,3.02.32,4.36,2.62,8.07-3.39,16.43-12.01,15.42-6.93-.81-11.03,2.27-13.73,7.58-4.32,8.52-9.37,16.76-8.55,27.16.56,7.15-3.17,13.02-8.38,17.98-3.81,3.63-7.4,7.56-10.66,11.69-1.19,1.5-1.58,3.99-1.56,6.02.14,11.57-4.05,21.91-9.87,31.39-5.82,9.48-13.08,18.06-19.36,27.27-3.64,5.33-6.24,11.37-9.95,16.64-3.99,5.67-8.9,10.7-13.07,16.26-1.31,1.75-1.54,4.31-2.26,6.5,2.28.6,4.66,1.98,6.81,1.68,10.66-1.49,21.38-2.92,31.84-5.37,8.2-1.93,16.05-5.32,24.06-8.07,4.88-1.68,9.7-3.51,14.62-5.06,7.58-2.38,12.22,1.76,10.88,9.56-3.02,17.52-11.83,32.1-24.04,44.48-8.37,8.49-17.2,16.96-27.18,23.29-8.2,5.2-18.23,7.84-27.75,10.55-18.16,5.16-36.47,1.09-54.46-1.38-8.92-1.22-17.39-6.18-25.86-9.91-3.87-1.7-6.89-2.24-10.59.47-8.11,5.94-17.2,9.26-27.47,8.5-4.93-.36-8.9,1.28-12.64,4.7-2.4,2.19-5.91,4.28-9,4.4-9.23.35-15.4,4.25-21.28,11.52-9.91,12.27-20.75,23.95-32.34,34.64-10.71,9.88-22.54,18.67-34.63,26.84-5.11,3.45-12.01,4.7-18.3,5.81-4.98.88-9.17-3.93-8.78-9.87.31-4.73,1.08-9.84,3.22-13.97,4.88-9.4,10.85-18.23,16.08-27.46,1.1-1.94.97-4.57,1.41-6.88-2.3-.3-5-1.55-6.82-.76-24.89,10.74-50.32,9.78-75.98,3.84-10.61-2.45-19.9-7.54-27.43-15.54-3.77-4-7.35-8.17-11.13-12.16-5.54-5.84-4.62-10.1,3.09-12.17,11.54-3.1,23.26-3.59,35.16-2.26,10.22,1.14,20.52,2.19,30.77,2.13,7.55-.05,15.1-1.83,22.61-3.1,3.41-.57,5-3.94,2.88-6.31-5.6-6.25-11.01-12.91-17.62-17.92-3.2-2.42-8.92-1.64-13.52-2.03-4.6-.4-9.23-.43-13.85-.66-3.99-.2-7.97-.52-11.96-.66-4.49-.15-8.99-.1-13.48-.25-8.79-.29-17.6-.31-26.34-1.11-5.7-.52-11.31-2.15-16.94-3.4-2.43-.54-4.73-1.73-7.17-2.07-20.76-2.89-36.63-14.31-51.76-27.95-14.06-12.67-29.27-24.07-44.1-35.87-4.68-3.73-9.6-7.21-14.68-10.36-7.88-4.88-15.69-10.04-24.09-13.85-7.97-3.61-16.01-3.52-24.09,2.03-10.52,7.22-18.79,16.03-20.78,28.56-1.57,9.91-1.96,20.48-.23,30.29,1.54,8.74,7.03,16.72,10.18,25.26,3.82,10.37,13.95,10.07,21.79,13.32,9.58,3.98,17.69,9.8,25.12,16.77.82.77,1.14,2.06,1.97,3.64-1.46.09-2.22.38-2.67.12-5.02-2.78-10.12-5.46-14.96-8.54-4.95-3.15-9.56-6.86-14.52-9.99-1.1-.69-3.45-.54-4.54.22-1.08.75-1.8,2.75-1.77,4.19.03,2.12,1.03,4.2,1.32,6.33.52,3.86-1.42,5.34-5.04,3.84-3.98-1.65-7.11-5.91-12.34-3.8-.44.18-1.81-1.27-2.38-2.19-6.47-10.42-12.95-20.83-19.23-31.36-1.42-2.37-2.32-5.13-3.06-7.82-1.4-5.12-2.69-10.3-3.68-15.51-.62-3.24-1.11-6.65-.79-9.9,1.2-12.54,1.45-25.24,5.84-37.29,3.31-9.08,9.69-15.92,16.94-21.73,15.08-12.09,33.22-14.3,51.73-14.52,3.4-.04,6.9.98,10.22,1.96,3.48,1.03,4.57-.47,3.81-3.38-.61-2.33-1.79-4.69-3.3-6.57-12.35-15.38-23.09-31.86-31.06-49.82-3.83-8.63-8.24-17.31-8.94-27.32-.63-9.05-6.78-12.33-15.93-11.37-8.2.87-16.53.59-24.8.62-4.81.02-9.74.24-14.4-.69-8.15-1.62-16.95-2.14-23.16-8.78-4.42-4.73-4.18-11.72-.41-16.97,4.94-6.89,9.7-13.93,14.16-21.14,5.65-9.12,4.5-19.45,3.49-29.27-1.2-11.66,1.41-20.76,11.13-28.01,3.51-2.62,6.08-7.13,7.88-11.29,4.24-9.78,10.92-15.87,21.84-13.88,5.82,1.06,11.93.45,17.89.82,3.42.21,5.18-1.14,6.14-4.41,2.47-8.48,6.11-10.7,15.06-9.6,1.16.14,2.37.61,3.45.39,1.64-.33,4.15-.76,4.54-1.8.56-1.5,0-3.86-.91-5.35-1.08-1.78-3.12-2.96-4.6-4.54-4.31-4.6-4.49-8.14-.79-13.28,4.38-6.09,3.89-7.05-.9-12.81-3.78-4.54-6.97-9.77-9.36-15.17-.88-1.98.71-5.76,2.27-7.93,2.2-3.07,5.27-5.81,9.77-4.37,2.22.71,4.33,1.79,6.58,2.35,6.87,1.7,13.74,3.41,20.7,4.66,1.33.24,3.76-1.23,4.43-2.55,1.46-2.89,2.95-6.23.02-9.26-1.04-1.07-2.69-1.71-3.35-2.94-1.03-1.9-2.47-4.53-1.85-6.09.64-1.6,3.57-3.2,5.48-3.19,5.8.04,11.59,1.15,17.4,1.25,2.7.05,6.57-.43,7.83-2.17,1.48-2.05,1.19-5.8.76-8.68-.49-3.23-2.52-6.24-2.93-9.46-.74-5.84,3.26-8.72,8.8-6.72,1.22.44,2.46,1.12,3.41,2,2.72,2.53,6.16,4.95,9.29,2.7,2.58-1.85,3.9-5.67,5.31-8.83.7-1.57.24-3.63.51-5.44.86-5.79,5.61-9.19,11.35-8.22,6.15,1.03,8.89-1.6,7.96-7.77-.6-3.96-2.16-9.22,2.15-10.7,3.02-1.04,8.03,1.06,11.05,3.27,4.86,3.55,8.66,8.51,13.21,12.53,1.58,1.4,4.47,2.92,6.09,2.38,5.21-1.74,10.13-4.39,15.12-6.77.86-.41,1.41-1.47,2.28-1.85,11.44-5.05,22.92-9.99,34.34-15.09,1.6-.71,2.9-2.12,4.29-3.25,1.4-1.15,2.56-2.88,4.16-3.46,8.83-3.2,9.95-10.36,9.58-18.21-.27-5.74-2.18-11.68-1.24-17.16,2.69-15.65,9.41-29.28,23.49-38.14,2.69-1.69,5.02-1.13,7.09,1.21,2.2,2.48,5.29,4.52,6.54,7.38,1.32,3.03,2.05,7.17,1.06,10.19-1.68,5.15-1.01,8.78,2.72,12.62,2.5,2.58,4.13,6.01,6.1,9.1,4.26,6.68,10.73,7.46,16.59,2.33,1.63-1.43,4.07-2.52,6.21-2.67,12.92-.9,25.87-1.88,38.81-2.05,11.11-.14,22.26.46,33.35,1.34,5.55.44,10.99,2.21,16.47,3.45,6.32,1.43,12.59,3.11,18.95,4.33,3.67.7,6.64-.94,7.93-4.56,1.22-3.43-.71-5.58-3.47-7.42-1.62-1.08-3.1-2.55-4.23-4.14-6.55-9.21-12.81-18.63-19.53-27.71-2.33-3.15-5.75-5.49-8.63-8.24-2.51-2.4-4.24-5.76-1.56-8.2,1.37-1.25,6.04-.76,7.88.68,13.26,10.36,26.15,21.13,34.63,36.18,3,5.33,6.69,10.29,10.26,15.28,3.67,5.14,8.76,4.42,11.34-1.32,3.42-7.62,9.51-12.27,17.38-14.44,1.59-.44,4.01.43,5.45,1.5,5.12,3.78,7.76,12.96,5.92,19.13-.23.78-.22,1.62-.32,2.43-.4-2.62-.35-5.42-1.31-7.81-.97-2.41-2.46-5.19-4.54-6.45-5.86-3.53-10.47-1.46-14.64,4.56-4.31,6.21-8.78,12.54-14.28,17.64-5.65,5.25-12.57,9.15-19.04,13.49-4,2.68-4.8,6.66-1.49,10.01,3.97,4.02,7.58,8.8,12.34,11.53,6.03,3.45,12.97,5.42,19.7,7.45,1.62.49,4.14-.96,5.89-2.08,6.42-4.11,8.44-10.59,9.72-17.75,1.46-8.11,3.73-16.08,5.7-24.09.43-1.74,1.11-3.42,1.68-5.13Zm-365,159.8c-13.04-5.39-26.17-.03-39.26-.14-1.38-.01-3.49,2.12-3.94,3.65-.31,1.07,1.3,3.3,2.61,4.16,5.44,3.58,11.29,6.26,18.03,6.14,1.48,2.73,2.39,6.09,4.56,8.05,4.41,3.98,9.47,7.26,14.35,10.7,1.19.84,2.66,1.36,4.07,1.78,6.88,2.02,13.75,4.1,20.71,5.83,1.84.46,4.52.38,5.81-.68.97-.81,1.05-3.93.29-5.37-2.57-4.87-2.18-9.54-.33-14.4.47-1.22.59-2.59.83-3.89.99-5.38-1.43-9.83-6.51-11.95-2.3-.96-4.86-1.52-6.87-2.89-4.75-3.24-9.5-3.53-14.55-1.06l.2.09Zm41.71,24.6c-2.9,6.84.58,13.34,1.16,19.99.1,1.19,1.03,2.53,1.97,3.35,1.04.91,2.64,1.92,3.79,1.72.92-.16,1.82-1.99,2.22-3.24,1.51-4.71,1.73-10.27,4.45-14.05,4.48-6.24,10.5-11.38,15.94-16.91,2.14-2.17,4.29-4.88,1.57-7.26-4.53-3.96-5.28-8.84-5.76-14.27-.19-2.16-1.82-4.2-2.8-6.29-1.25-2.67-2.29-5.46-3.81-7.97-1.07-1.77-2.78-3.16-4.21-4.71-1.38,1.37-3.77,2.59-3.99,4.13-1.66,11.42-9.71,21.27-8.16,33.47.13,1.01-.53,2.35-1.24,3.18-2.35,2.76-2.31,5.71-1.18,8.87h.04Zm410.14,274.5c2.31-1.33,5.09-2.22,6.83-4.09,3.15-3.39,5.24-7.82,8.59-10.95,3.55-3.32,3.88-6.69,2.58-10.79-.48-1.52-1.1-3-1.73-4.71,4.26-2.14,8.77-3.55,8.69-9.34-.05-3.79.83-7.6.77-11.39-.02-1.57-1.13-3.38-2.28-4.56-.56-.58-2.8-.46-3.49.18-4.27,3.98-9.14,5.81-14.98,5.49-1.4-.08-3.1.46-4.23,1.29-6.26,4.61-13.38,8.56-18.3,14.35-5.61,6.59-9.32,14.83-13.69,22.45-3.61,6.31-7.15,12.68-10.38,19.2-1.53,3.09-2.27,6.57-3.37,9.88-.14.45-.28.89-.41,1.34-1.69,1.66-3.7,3.11-4.99,5.04-1.99,2.99-3.62,6.25-5.13,9.52-.88,1.92-2.01,4.24-1.67,6.12,1.22,6.66-.68,12.36-3.82,18.07-1.88,3.41-.37,5.44,3.41,4.48,6.92-1.76,13.69-4.12,20.47-6.42,1.34-.45,2.61-1.56,3.54-2.67,8.11-9.78,16.97-19.09,23.87-29.67,4.31-6.61,10.65-13.16,9.35-22.43.12-.13.24-.25.37-.37Zm12.52,101.84c2.96-.28,6.4.31,8.79-1.01,10.81-5.95,16.39-17.09,24.45-25.79.72-.78.6-2.27,1.19-3.23,3.96-6.5,4.28-14.78,10.02-20.45.61-.6.15-2.29.18-3.47-1.22.02-2.66-.37-3.61.14-1.41.75-2.54,3.16-3.67,3.09-7.9-.49-13.63,4.87-20.5,7.02-6.48,2.03-13.29,2.98-19.83,4.85-9.34,2.67-18.69,3.73-28.38,2.45-3.69-.49-7.83-.61-11.27.55-13.73,4.64-27.26,9.88-40.88,14.86-6.96,2.54-10.53,8.89-8.37,15.09-.95.67-2.14,1.17-2.79,2.05-1.46,1.99-2.66,4.18-3.97,6.28,2.28,1.28,4.48,2.72,6.85,3.8,2.19.99,4.58,1.54,6.84,2.39,2.77,1.04,5.42,2.79,8.27,3.2,11.11,1.6,22.25,3.31,33.44,3.98,9.2.55,18.6.41,26.42-6.18,1.46-1.23,4.01-1.45,6.1-1.58,5.44-.33,9.04-2.83,10.71-8.05Zm-337.29,27c-7.49-2.4-16.05-.34-22.9-5.51-.47-.36-1.31-.43-1.94-.33-1.55.24-3.81.19-4.42,1.13-.61.95-.03,3.28.81,4.45,5.56,7.83,13.35,13.02,22.4,15.28,8.26,2.07,16.98,2.24,25.47,3.44,4.68.66,9.37,2.67,13.93,2.34,5.96-.43,11.79-2.59,17.67-4,.07-.17.15-.24.25-.22,2.78-.49,5.54-1.15,8.33-1.42,3.31-.31,6.73.11,9.94-.56,1.8-.38,3.26-2.34,4.87-3.58-1.19-1.25-2.23-2.71-3.62-3.7-2.15-1.52-4.64-2.57-6.79-4.09-2.88-2.04-1.74-4.68.16-6.29.91-.77,3.85-.43,4.91.5,2.85,2.49,4.93,5.87,7.8,8.33,2.43,2.08,5.36,4.11,8.38,4.83,4.11.98,6.37-2.36,7.41-5.81.32-1.05-1.13-3.4-2.34-4.02-5.23-2.68-10.7-4.9-16.05-7.34-7.19-3.29-14.32-5.99-21.1.89-.54.55-1.45.87-2.24,1-7.69,1.24-15.36,2.82-23.1,3.49-9.39.82-18.85.86-28.28,1.24l.44-.05Zm-37.81-448.78c-9.01-.76-12.04,2.44-10.74,11.23.53,3.61.93,7.25,1.36,10.87.51,4.2,5.2,9.53,9.36,9.78,1.52.09,4.16-1.43,4.51-2.71.65-2.37.88-5.61-.28-7.58-4.01-6.84-4.15-14.23-4.37-21.71,7.31,2.01,7.87,8.7,9.86,14.36.82,2.33.75,5.16,2.06,7.11,7.38,10.98,16.67,19.87,29.25,24.7,1.43.55,3.34-.14,5.02-.26-.41-1.51-.73-3.05-1.24-4.53-1.9-5.55-5.22-11-5.54-16.63-.98-17.15,4.71-32.08,18.43-43.1,5.9-4.74,11.92-9.86,18.74-12.79,5.21-2.24,11.78-1.68,17.75-1.7,19.45-.07,38.74-.41,57.81,5.87,11.65,3.83,23.19,7.29,32.46,15.33,5.56,4.83,10.27,10.85,14.4,16.98,1.34,1.99.67,7.91-.89,8.78-3.83,2.14-5.15-2.26-6.3-5.01-3.8-9.1-10.73-15.48-19.03-19.78-15-7.77-31.19-12.53-47.98-14.49-8.89-1.04-17.97-.51-26.95-.83-15.17-.53-28.2,4.23-38.21,15.84-3.65,4.24-7.76,8.72-9.49,13.83-3.16,9.32-4.67,19.48-1.44,29.01,2.72,8.04,7.61,15.38,17.25,16.78,7.72,1.12,15.53,1.63,23.29,2.52,12.02,1.38,24.01,3.1,36.06,4.16,5.76.51,11.64-.45,17.44-.11,1.77.1,3.42,2.32,5.12,3.57-1.44,1.01-2.75,2.47-4.35,2.96-8.31,2.55-16.63,1.69-25.15.55-11.84-1.58-23.9-1.57-35.75-3.08-9.44-1.21-19.4-.95-27.75-7.04-.91-.66-3.65.02-4.75.98-4.99,4.39-7.19,4.45-12.41.39-2.44-1.9-5.32-3.3-8.14-4.64-.85-.4-2.79-.19-3.1.37-.53.95-.66,2.74-.09,3.59,1.84,2.74,3.82,5.49,6.21,7.74,17,16.03,28.69,34.66,31.28,58.55.99,9.19-.48,16.85-5.82,24.41-6.59,9.34-18.85,13.12-28.91,7.69-11.47-6.19-20.64-15.29-26.16-26.75-4.6-9.53-12.3-12.51-20.99-14.9-2.1-.58-5.38-.09-6.97,1.25-8.22,6.98-16.54,13.97-23.91,21.81-6.1,6.49-11.28,13.96-16.23,21.41-4.91,7.4-9.05,15.31-13.5,23.01-.91,1.58-1.86,3.18-2.52,4.87-2.16,5.55-3.59,11.46-6.41,16.64-3.84,7.03-1.64,12.5,2.89,17.74,3.8,4.4,7.98,8.47,11.85,12.82,3.22,3.63,4.72,10.05,2.64,10.71-4.5,1.44-7.14-2.09-9.31-5.05-11.73-16.09-25.37-30.38-40.49-43.27-6.32-5.39-13.3-10-19.63-15.39-5.97-5.09-10.26-4.48-13.49,2.62-3.9,8.56-13.7,14.23-23,13.3-4.55-.45-7.58,2.5-5.94,6.55,5.37,13.23,9.72,27.16,17.07,39.23,14.08,23.13,29.3,45.64,48.99,64.67,10.32,9.97,20.73,19.66,33.36,26.79,6.15,3.47,12.59,7.22,17.29,12.32,8.49,9.21,16.84,18.37,28.07,24.28,10.25,5.4,20.6,10.63,30.94,15.84,3.08,1.55,6.41,2.63,9.44,4.26,10.75,5.8,22.88,6.37,34.4,9.25.3.08.72.04.98-.11,1.49-.91,2.95-1.88,4.41-2.83-1.04-1.32-1.91-2.84-3.16-3.92-3.87-3.34-8.69-5.91-11.67-9.88-6.87-9.16-13.51-18.62-19.05-28.61-5.78-10.42-11.25-21.26-14.87-32.56-4.96-15.45-7.64-31.62-12.12-47.24-2.13-7.43-.56-13.54,4.37-18.32,4.56-4.43,10.43-7.54,15.86-11,.88-.56,2.77-.34,3.77.24,8.18,4.77,16.55,9.3,24.28,14.73,6.76,4.75,12.74,10.61,19.1,15.93,3.55,2.97,6.01,2.51,8.71-1.23,2.04-2.82,3.79-6.24,6.54-8.1,13.9-9.38,27.84-18.75,42.3-27.2,5.1-2.98,11.68-3.63,17.69-4.69,1.59-.28,3.61,1.91,5.43,2.96-1.13,1.61-1.95,3.69-3.47,4.72-1.71,1.16-4.01,1.7-6.12,1.94-9.7,1.13-17.78,6.27-26.03,10.72-10.88,5.88-20.54,13.32-28.45,23.12-4.79,5.94-5.14,8.37.69,13.76,3.41,3.16,7.22,6.18,9.64,10.03,2.63,4.19,6.04,5.63,10.44,6.64,7.73,1.77,15.69,3.13,21.61,9.36,2.65,2.79,6.55,3.95,9.37.91,3.99-4.3,11.91-6.21,9.95-14.6-.07-.32-.21-.65-.39-.92-3.71-5.37-1.42-10.15,1.53-14.81,2.21-3.5,5.22-3.97,8.51-1.65,2.03,1.43,3.62,3.5,5.71,4.8,1.68,1.05,3.81,1.39,5.74,2.04.56-1.81,1.5-3.59,1.61-5.42.24-3.81-.27-7.68.1-11.48.7-7.26,7.26-11.97,13.98-10.07,3.56,1.01,5.67-.24,7.51-3.1,6.4-9.93,15.31-11.16,24.18-3.45,4.24,3.69,7.8,3.09,10.52-1.78.65-1.16,1.15-2.41,1.85-3.54,4.67-7.52,12.33-8.66,18.77-2.65,2.71,2.52,5.85,3.27,8.62,1.21,5.99-4.45,12.1-8.92,11.53-17.94-.2-3.14.26-7.32,2.18-9.4,5.69-6.16,4.92-12.32,2.67-19.47-2.07-6.59-3.2-13.51-4.26-20.36-.86-5.58-.92-11.28-1.49-16.92-1.4-13.77-2.71-27.42,2.28-40.96,3.53-9.59,9.09-16.87,18.54-20.9,5.53-2.36,7.41-6.91,4.49-12.05-4.27-7.52-5.05-15.65-5.11-24.09-.09-11.9,5.53-21.61,11.07-31.45.96-1.7,1.9-3.65,2.02-5.53.55-9.25,1.3-18.53.99-27.76-.16-4.84-2.42-9.59-3.62-14.41-1.51-6.03-2.24-11.64,1.25-17.78,1.55-2.71,0-8.07-1.63-11.53-3.78-8.07-8.58-15.66-12.65-23.61-.7-1.38.15-3.55.29-5.36,1.73.76,3.54,1.39,5.16,2.34.79.47,1.31,1.49,1.8,2.36,3.27,5.79,6.33,11.72,9.79,17.39,6.06,9.94,13.22,18.85,24.6,23.15,6.68,2.52,13.43,4.84,20.18,7.16,5.27,1.81,13.94-5.21,13.5-10.83-.48-6.09-5.95-12.28-11.81-13.97-7.11-2.06-14.51-3.66-21.07-6.9-15.64-7.73-29.43-17.96-38.93-33.08-2.94-4.68-4.98-5.08-8.95-1.18-3,2.95-5.82,3.11-9.42,1.2-2.59-1.38-5.63-1.9-8.39-3.01-3.5-1.41-7.58-2.3-10.24-4.71-7.88-7.14-15.34-14.77-22.63-22.51-3.71-3.94-1.98-8.35,3.4-8.75,5.37-.4,8.57-3.35,10.93-7.57.89-1.58.96-3.61,1.4-5.44-2.01-.02-4.33-.72-5.96.05-5.1,2.42-10.1,2.42-14.94,0-16.56-8.29-34.66-7.66-52.25-8.15-16.37-.46-32.82,1.89-49.23,3.02-6.78.47-9.33,4.94-6.95,11.42.65,1.77.81,4.43-.07,5.93-4.25,7.21-10.96,11.29-18.81,13.89-3.74,1.24-7.51,2.82-10.78,4.98-7.08,4.66-14.13,3.95-20.2-2.01-1.75-1.71-5.38-3.65-6.89-2.91-1.84.9-2.49,4.47-3.39,6.98-1.15,3.2-1.39,6.91-3.17,9.65-5.2,8.04-10.9,15.77-16.55,23.51-2.37,3.25-3.59,6.18-.81,9.93.89,1.2,1.01,3.55.56,5.1-4.63,15.94-9.48,31.81-14.16,47.73-.44,1.48-.06,3.21-.05,4.82Zm4.1,275.52c-7.88-.18-11,1.8-10.53,7.09.49,5.43,1.13,11.01,2.86,16.14,3.93,11.61,8.51,23.01,12.93,34.46,6.94,17.99,18.14,33.29,31.39,46.96,4.29,4.43,10.49,7.55,16.38,9.76,6.43,2.41,13.5,3.11,20.31,4.49,1.95.39,4,.9,5.92.66,2.11-.26,4.12-1.31,6.18-2.02-.9-2.23-1.4-4.76-2.79-6.63-1.86-2.5-4.8-4.22-6.6-6.75-7.9-11.1-15.64-22.32-23.22-33.64-1.11-1.66-1.89-4.34-1.37-6.11.59-1.98,2.85-4.93,4.37-4.92,7.86.07,15.94-1.55,23.49,2.53,1.88,1.01,4.58.5,6.91.69-.54-2.32-.58-4.93-1.72-6.89-2.15-3.7-5.06-6.94-7.43-10.52-3.84-5.8-7.05-12.07-11.33-17.51-10.78-13.68-24.23-24.61-37.85-35.33-6.25-4.92-9.7-4.95-14.47,1.48-3.68,4.98-8.48,5.93-13.4,6.07Zm-32.88-197.78c1.41,12.96,3.48,22.11,20.46,26.81,9.29,2.57,16.41,8.58,19.73,18.3.82,2.41,2.34,4.82,4.15,6.6,2.18,2.15,4.64,1.84,6.91-.69,6.49-7.23,14.2-12.28,24.27-12.93,6.54-.42,8.7-4.52,5.78-10.32-1.86-3.7-3.44-7.54-5.18-11.3-3.73-8.07-7.81-15.67-16.33-20.1-2.92-1.52-4.89-5.15-6.91-8.08-2.25-3.26-3.66-7.15-6.16-10.17-2.78-3.37-4.16-6.6-2.99-10.94.97-3.61-.25-6.6-3.68-8.41-3.31-1.74-6.55-2.16-9.8.39-1.68,1.31-3.55,2.46-5.5,3.33-17.11,7.66-23.33,22.36-24.75,37.51ZM53.69,693.75c.15-.01.29-.03.44-.04,0-2-.04-4,0-6,.47-20.97,9.05-36.8,29-45.22,8.28-3.49,16.89-4.07,25.29-.6,7.17,2.97,14.22,6.31,21.01,10.05,3.85,2.12,6.92,5.59,10.58,8.09,21.16,14.43,41.76,29.51,59.75,47.94,8.47,8.67,19.27,14.27,30.26,18.89,9.15,3.84,19.01,5.98,28.59,8.76,1.38.4,3.1.62,4.38.16,1.4-.5,2.48-1.89,3.69-2.9-.9-1.07-1.58-2.56-2.73-3.12-4.47-2.21-9.2-3.9-13.62-6.19-9.99-5.19-20.05-10.28-29.67-16.1-4.58-2.77-8.29-7.03-12.24-10.78-4.69-4.44-8.52-10.26-13.93-13.37-18.07-10.4-34.12-23.28-48.2-38.39-16.96-18.21-38.57-18.95-59.69-14.48-23.26,4.93-38.11,20.88-42.57,45.29-4.05,22.16.91,42.5,11.68,61.75,1.85,3.31,3.84,6.87,6.69,9.17,1.95,1.57,6.29,2.45,8.17,1.33,3-1.79.55-4.63-1.31-6.6-2.15-2.28-5.22-4.11-6.39-6.79-2.95-6.8-5.7-13.82-7.33-21.02-1.45-6.42-1.3-13.2-1.85-19.82Zm526.1-145.3c2.15-11.84-4.25-19.81-14.52-26.11-5.45-3.35-11.01-7.17-15.07-12-6.38-7.57-12.05-15.83-13.95-26.08-.74-4.01-2.57-7.93-4.56-11.54-.92-1.66-3.41-2.46-5.18-3.65-.77,2-2.34,4.06-2.2,5.99,1.69,21.96-.43,44.36,7.27,65.66,3.44,9.51,6.24,19.3,10.3,28.54,3.22,7.32,5.87,14.37,4.86,22.52-.73,5.91,3.18,8.34,8.87,6.33,6.41-2.26,9.51-7.41,12.64-12.8,6.48-11.15,12.08-22.55,11.55-36.87Zm-13.17-216.92c.39-.25.78-.5,1.17-.75-1.58-2.58-3.15-5.16-4.73-7.73-.69-1.12-1.47-2.18-2.11-3.33-1.62-2.9-3.7-5.96-7.3-4.35-3.83,1.72-2.91,5.9-1.09,8.23,6.1,7.79,6.66,17.01,6.94,26.05.24,8.02.08,16.45-2.15,24.05-2.52,8.61-7.6,16.47-11.42,24.72-.82,1.77-1.34,3.83-1.37,5.77-.24,13.95,4.38,27.02,7.73,40.29.61,2.43,3.23,4.58,5.34,6.37,12.6,10.72,17.43,10.5,29.48-.42,3.67-3.33,4.65-6.99,3.55-11.63-.92-3.87-1.64-7.8-2.31-11.73-2.74-16.19-5.38-32.4-8.2-48.59-.36-2.08-1.67-3.98-2.27-6.04-3.8-13.13-7.52-26.28-11.24-39.43-.13-.46-.02-.99-.02-1.49Zm-392.03,147.7c3.95.25,6.64-1.03,6.7-5.43.06-4.37-2.84-4.25-6.16-4.3-3.05-.04-6.48-.4-9.07-1.83-11.15-6.2-22.24-12.57-32.98-19.45-6.26-4.01-12.86-5.95-20.1-6.67-9.54-.94-19.13-1.53-27.02-8.44-2.04-1.78-5.92-1.92-8.97-2-10.31-.29-20.03-1.95-28.38-8.72-1.54-1.25-5.19-2.33-6.11-1.51-5.75,5.12-12.54,9.61-15.11,17.39-2.11,6.38.54,10.14,7.26,11.39,2.45.45,5.08.58,7.28,1.61,7.84,3.64,15.67,2.7,23.91,1.52,10.84-1.56,21.5-1.31,29.26,8.97,7.72,10.22,17.33,17.12,31.33,15.9,9.2-.8,18.53-.51,27.78-.23,6.8.2,13.59,1.18,20.38,1.81Zm389.98,124.59c1.87,2.07,3.25,4.84,5.39,5.67,3.32,1.29,5.2-1.6,6.03-4.44,2.36-8.07,4-16.2,10.1-22.86,3.76-4.1,7.41-7.24,12.85-8.64,3.41-.88,6.91-2.34,9.72-4.4,3.72-2.73,7.03-6.13,10.12-9.59,3.99-4.46,6.01-9.39,2.77-15.45-6.16-11.52-12.92-22.83-17.81-34.88-4.32-10.65-6.46-22.19-9.52-33.35-.17-.61-.07-1.34.07-1.98,1.21-5.5,2.58-10.97,3.63-16.51.32-1.7-.19-3.57-.32-5.36-1.69.74-3.59,1.21-5.04,2.28-4.65,3.44-9.01,7.28-13.72,10.61-4.04,2.86-5.2,6.45-4.59,11.18,1.03,8.01,1.92,16.05,2.6,24.1.86,10.18-2.01,21.3,7.77,29.12.57.45.67,1.49.97,2.27,4.67,12.07,3.68,24.66-.4,36.07-3.79,10.59-11.1,19.91-16.87,29.79-1.06,1.82-2.14,3.63-3.76,6.36Zm117.55-125.67c.04-.83.34-1.77.06-2.47-.7-1.73-1.68-3.35-2.54-5.01-1.45,1.12-3.43,1.93-4.28,3.4-5.01,8.74-12.46,14.41-21.45,18.56-4.81,2.22-9.5,4.87-13.81,7.93-2.59,1.84-4.67,4.66-6.42,7.39-2.65,4.15-4.86,8.59-7.16,12.96-.43.82-.74,1.95-.54,2.8,1.33,5.61,1.86,11.68,4.44,16.68,5.22,10.07,1.78,17.59-5.23,24.63-4.68,4.69-9.82,8.97-14.13,13.98-1.65,1.92-2.65,5.6-2.06,8.02,1.42,5.9,1.59,11.45-.57,17.14-.76,2-1.29,4.2-1.32,6.32-.02,1.47.57,3.6,1.62,4.26,1.03.64,3.32.28,4.5-.49,5.9-3.84,10.34-8.95,11.53-16.14,2.58-15.59,8-29.46,19.63-41.04,7-6.97,12.2-15.92,10.25-27-.26-1.5.2-3.47,1.03-4.76,5.19-8.03,11.05-15.66,15.77-23.94,4.2-7.37,10.35-14.01,10.67-23.22Zm-274.07,212.45l-.53,1.21c-.67,0-1.39-.18-1.99.03-2.81.98-6.45,1.3-8.17,3.28-2.75,3.16-.01,6.43,1.92,9.41,4.24,6.52,8.89,12.85,12.36,19.77,7.44,14.84,17.23,28.04,27.98,40.45,4.23,4.89,7.99,11.2,15.41,12.68,1.38.27,2.48,1.81,3.87,2.18,4.02,1.05,8.09,2.05,12.2,2.59,2.54.34,5.2-.25,7.8-.3,4.04-.08,8.04-.62,8.65-5.52.94-7.5,1.24-15.08,2.11-22.6.3-2.62.76-5.79,2.39-7.59,3.97-4.41,5.13-10.14,1.18-14.66-3.89-4.45-8.35-8.45-12.86-12.3-3.74-3.19-7.59-6.56-11.97-8.63-6.81-3.22-13.15-7.97-21.24-7.93-.89,0-1.94-.62-2.65-1.26-3.9-3.49-8.53-3.85-13.51-3.93-3.84-.06-7.78-.92-11.48-2.07-3.94-1.22-7.66-3.18-11.47-4.81ZM124.01,427.83c-.19,0-1.18.08-2.18.11-4.52.15-6.72-2.67-7.56-6.54-.9-4.13,2.61-4.83,5.38-5.87,1.4-.53,3.03-.55,4.29-1.28,1.18-.68,2.78-1.99,2.77-3.01,0-1.36-1.09-3.16-2.26-3.96-1.42-.97-3.4-1.16-5.17-1.57-4.02-.94-8.04-1.92-12.1-2.68-2.75-.52-5.57-.87-8.36-.98-3.45-.14-6.94-.19-10.36.16-1.54.16-4.04,1.21-4.24,2.21-.7,3.65-2.01,8.15-.55,11.08,3.89,7.82,9.31,14.07,19.36,15.2,8.81,1,17.42,3.85,26.08,6.03,1.4.35,2.61,1.44,3.91,2.17,14.2,7.99,28.35,16.07,42.62,23.91,4.91,2.7,8.36.99,8.36-4.66,0-7.33,1.56-14.03,4.21-20.78,1.73-4.4-1.18-7.11-5.94-7.17-17.68-.22-35.5,2.78-52.98-2.31-1.38-.4-2.98-.05-5.28-.05Zm-1.1,74.62c2.13-.86,3.85-1.39,5.42-2.22,3.79-2,7.51-4.15,11.27-6.21,2.34-1.27,4.88-2.25,7.01-3.8,1.18-.86,1.7-2.64,2.52-4-1.53-.73-3.12-2.18-4.57-2.05-5.12.46-10.18,1.53-15.28,2.24-10.36,1.45-19.93-.83-28.04-7.36-4.75-3.82-8.68-8.68-13-13.04-4.32-4.35-9.66-3.78-10.89,1.61-1.29,5.62-5.43,8.26-9,11.97-5.29,5.49-9.78,11.9-13.8,18.42-2.16,3.5-2.91,7.98-3.73,12.14-.44,2.21-.31,5.05.78,6.88.77,1.29,3.57,1.76,5.5,1.85,2.96.15,5.95-.48,8.94-.52,5.87-.08,10.08-2.84,11.85-8.25,5.39-16.53,23.88-20.38,36.24-12.05,2.69,1.81,5.84,2.94,8.77,4.39Zm573.69,33.62c-8.59,1.25-15.62,2.58-22.7,3.2-5.69.5-9.68,3.1-12.58,7.73-2.2,3.51-3.5,8.14-6.57,10.46-11.11,8.4-13.99,21.74-20.73,32.72-.84,1.36-.39,4.97.7,5.7,1.5,1.01,4.67,1.1,6.27.15,8.3-4.94,16.76-5.74,25.61-2.05,2.99,1.25,5.6,1.27,7.56-1.46,2.58-3.6,5.6-7.1,7.19-11.13,1.68-4.25,1.77-9.1,2.78-13.64,1.98-8.92,1.89-18.84,11.55-24.18,1.13-.63,2.18-2.42,2.23-3.71.06-1.5-1.02-3.05-1.31-3.79ZM341.75,167.23c-2.62-3.35-4.31-6.35-6.8-8.36-1.24-1-5.16-.98-5.79-.04-3.06,4.57-9.48,6.7-9.8,13.29-.05,1.04-1.12,1.99-1.57,3.04-1.6,3.73-3.32,7.43-4.64,11.26-1.24,3.6-2.1,7.34-2.99,11.05-.38,1.57-.69,3.25-.55,4.83.31,3.61.72,7.24,1.47,10.78.68,3.21,1.37,6.59,2.92,9.43,4.25,7.78,12.68,9.77,20.34,5.37,2.29-1.31,4.93-2,7.26-3.25,4.75-2.54,9.55-5.05,14.06-7.98,3.12-2.03,2.89-4.61.45-7.58-6.01-7.3-11.84-14.76-17.48-22.35-1.95-2.62-3.55-5.68-4.48-8.8-.41-1.36,1.02-3.53,2.08-4.99,1.32-1.82,3.13-3.29,5.52-5.72Zm312.64,275.67c-2.82.71-6.73.5-8.24,2.31-3.39,4.06-7.46,4.36-12,4.63-5.32.31-7.33,2.49-7.61,7.92-.11,2.14.23,4.31.27,6.46.17,8.6.19,17.2.52,25.79.08,2.07.76,5.58,1.79,5.84,1.94.47,4.53-.61,6.52-1.66,2.74-1.45,4.95-4.09,7.79-5.15,13.14-4.89,22.81-13.88,30.31-25.33,1.22-1.86,1.29-5.25.54-7.47-2.13-6.29-13.02-12.96-19.9-13.33Zm-93.58,261.08c.57-.05,1.14-.1,1.71-.14.63-4.13,1.45-8.25,1.83-12.4.8-8.69,1.68-17.4,1.91-26.12.16-6.12-.45-12.3-1.17-18.39-1.37-11.53,1.27-23.66-5.89-34.35-3.17-4.74-5.48-5.44-8.78-.66-3.2,4.63-6.63,9.23-8.95,14.3-3.27,7.15-6.14,14.6-8.09,22.2-.84,3.28,1,7.12-3.61,8.99-.85.35-1.19,2.26-1.53,3.52-1.87,7.01-3.75,14.02-5.43,21.08-.4,1.69-.06,3.57-.06,6.76,5.75-3.88,10.17-7.08,14.82-9.88,1.62-.97,4.28-1.91,5.69-1.24,5.22,2.5,10.28,5.27,12.03,11.74,1.35,5,3.65,9.74,5.52,14.6Zm-40.49,62.56c.19.54.38,1.08.56,1.62,2.84-1.04,6.29-1.39,8.41-3.25,7.29-6.39,10.55-15.47,14.61-23.95,2.81-5.88,2.98-11.94,2.48-18.46-.55-7.07-2.89-13.9-1.56-21.34,1.18-6.57-4.14-9.55-9.61-5.73-3.84,2.68-7.33,6.17-10.13,9.93-4.45,5.97-8.2,12.47-12.21,18.76-.25.4-.36.96-.36,1.44-.09,5.47-1.31,10.59-4.58,15.1-.18.25-.21.63-.27.96-1.53,7.29-3.24,14.54-4.46,21.88-.34,2.03.1,5.26,1.41,6.19,1.39.98,4.31.13,6.47-.36,3.13-.72,6.18-1.84,9.26-2.79Zm147.08-233.53c2.53-.66,4.27-1.22,6.05-1.56,3.73-.72,7.53-1.09,11.2-2.03,7.81-2.01,15.83-3.62,23.25-6.67,6.83-2.81,7.76-9.91,3.02-15.28-5.15-5.83-10.28-11.69-15.62-17.34-1.51-1.6-4.62-3.99-5.46-3.48-2.08,1.26-3.59,3.82-4.73,6.16-1.36,2.78-1.47,6.31-3.21,8.74-5.47,7.65-11.57,14.84-17.11,22.44-1.06,1.45-1.25,4.07-.79,5.89.33,1.33,2.37,2.23,3.42,3.14Zm-190.56,163.99c.06,4.9,1.66,8.48,6.77,9.91,1.17.33,2.25,1.29,3.15,2.19,3.39,3.4,6.64,6.94,10.03,10.34,2.2,2.2,4.5,2.36,6.05-.67,2.68-5.25,5.29-10.54,7.61-15.95.67-1.56.69-3.67.29-5.36-1.46-6.12-2.89-12.29-4.98-18.21-1.53-4.31-3.74-8.49-6.27-12.32-4.53-6.87-9.45-13.49-14.43-20.04-.69-.9-3.01-1.53-3.93-1.05-1.23.64-2.79,2.73-2.52,3.77.74,2.86,2.15,5.63,3.71,8.18.71,1.15,2.81,1.44,3.54,2.59.83,1.32.84,3.16,1.21,4.78-1.52-.35-3.08-.59-4.55-1.1-1.3-.44-2.95-1.99-3.64-1.61-1.22.69-2.15,2.36-2.61,3.81-.64,2.03-.44,4.33-1.12,6.34-1.67,4.98-.76,9.3,1.93,13.75,1.07,1.76.62,4.52.61,6.82,0,1.28-.56,2.55-.86,3.82Zm-310.49-179.16c11.34.25,19.78-4.32,25.03-14.7,1.75-3.47,3.95-7.29.64-9.95-3.35-2.7-8.72-6-12.07-5.04-14.61,4.15-28.81,9.76-43.16,14.84-.31.11-.59.32-.86.51-2.83,2.07-3.1,3.91.04,6.15,8.23,5.86,15.98,12.97,27.4,8.23.85-.35,1.98-.05,2.98-.05Zm264.78,279.36c-7.66-6.78-16.17-4.9-19.73,3.5-.69,1.63-1.7,3.16-2.73,4.61-5.72,8.05-11.65,15.95-17.18,24.12-4.31,6.37-7.96,13.18-12.23,19.58-2.55,3.82-2.5,7.04.95,10.16,4.01-1.99,8.1-3.71,11.87-5.98,4.41-2.66,8.56-5.75,12.76-8.74,5.28-3.76,10.58-7.5,15.71-11.46,6.52-5.03,9.32-13.77,17.6-17.26,3.28-1.38,3.81-6.4,1.02-7.97-3.09-1.74-6.95-2.13-10.47-3.1,2.83,7.08,2.34,9.86-3,12.19-3.94,1.72-7.56,3.23-8.23,8.15-.1.75-1.2,1.75-2.01,1.96-3.28.87-5.34,2.66-6.86,5.85-.69,1.45-3.62,2.66-5.4,2.49-1.42-.13-3.5-2.41-3.67-3.93-.16-1.45,1.73-3.14,2.76-4.7,1.35-2.05,2.78-4.06,4.11-6.12,2.92-4.53,5.2-9.66,8.88-13.44,2.9-2.98,7.53-4.22,11.31-6.39,1.52-.87,2.81-2.16,4.54-3.53Zm133.54-318.34c.44-.07.88-.14,1.31-.22.31-13.5.06-13.91-11.67-21.07-2.27-1.38-4.46-2.89-6.66-4.38-4.94-3.36-8.51-3.45-11.67-.25-3.24,3.29-2.73,6.61.12,11.74,3.85,6.93,6.9,14.3,10.38,21.44,3.19,6.54,6.21,13.2,9.91,19.45,1.51,2.55,4.41,4.48,7.06,6.06,1.23.74,3.9.59,4.93-.3,1-.87,1.22-3.26.97-4.86-1.43-9.23-3.1-18.41-4.69-27.62Zm-201.16,271.48c-.2-.53-.4-1.06-.61-1.59-1.08.53-2.84.86-3.06,1.63-.28.95.67,2.3,1.2,3.43.2.42.65.79,1.07,1.02,9.09,5.06,18.03,10.4,27.34,15.01,5.23,2.59,11,4.18,16.65,5.8,8.2,2.36,16.48,4.47,24.79,6.36,1.43.32,4.2-.62,4.63-1.68.59-1.45-.3-3.63-.9-5.37-.29-.84-1.44-1.34-2.08-2.09-2.29-2.69-4.83-5.23-6.7-8.18-2.58-4.07-7.59-7.68-10.45-5.85-4.17,2.66-7.75,1.75-11.57.04-1.76-.79-3.44-1.79-5.09-2.8-5.21-3.19-10.18-6.87-15.68-9.43-2.32-1.08-5.79-.18-8.61.42-3.71.79-7.29,2.16-10.93,3.29Zm46.21-4.82c.15-.54.3-1.09.45-1.63-2.09-2.96-4.34-5.81-6.23-8.89-3.96-6.47-11.4-10.99-11.21-19.81-5.44-4.32-5.78-11.97-9.92-16.47-3.96-4.3-10.66-7.47-16.53-8.23-6.35-.82-12.33-1.32-17.93-4.7-1.19-.72-3.29.07-4.97.16.29,1.68.15,3.63.97,4.99,1.71,2.81,4.36,5.08,5.87,7.97,6.09,11.69,14.42,21.46,25.12,28.99,6.16,4.33,13.07,7.58,19.63,11.34,3.59,2.06,7.09,4.32,10.77,6.2,1.06.54,2.63.08,3.96.08Zm-130.99-497.08c.57,5.89-1.13,8.31-5.1,9.63-3.84,1.28-7.41,3.35-11.12,5.03-1.64.74-3.29,1.76-5.02,1.99-5.07.67-10.23,1.67-15.27,1.33-10.05-.68-14.52,6.26-18.81,13.09-3.41,5.43-.18,11.52,6.22,12.03,3.26.26,6.73-.98,9.98-1.94,2.34-.69,4.39-2.46,6.74-3.06,15.9-4.05,28-13.88,38.78-25.55,2.14-2.32,2.98-5.83,4.42-8.8-3.21-1.12-6.41-2.23-10.82-3.77ZM31.31,456.52c-1.18,1.67-3.59,3.55-3.38,5.04,1.15,7.95-1.02,14.73-5.51,21.15-.71,1.02-.59,3.75.22,4.44,1.1.94,3.33,1.15,4.88.81,3.22-.72,6.26-2.64,9.48-2.95,12.15-1.16,21.03-8.59,30.35-15.18,2.37-1.67,6.86-3.38,4.59-6.9-1.09-1.7-6.16-2.03-8.93-1.24-9.25,2.65-17.76,1.2-26.15-2.85-1.49-.72-3.05-1.28-5.56-2.33Zm465.33,159.84c.36-.21,1.57-1.07,2.9-1.69,5.28-2.47,13.4.96,13.8,6.53.47,6.7-.02,13.57-1,20.23-.38,2.57-3.21,4.79-4.98,7.13-.77,1.02-2.19,1.84-2.41,2.93-.67,3.34,6,13.18,10.11,14.77.33-1.45,1.21-2.97.87-4.16-2-7.1.78-12.99,4.22-18.81.92-1.57,1.75-3.26,2.23-5,1.65-5.99,3.69-12.78-.75-17.67-5.09-5.61-5.27-11.3-4.51-17.94.23-2-.82-5.65-2.03-6.01-3.57-1.05-2.87,2.53-3.36,4.57-1.48,6.08-7.14,8.1-11.72,3.88-2.03-1.87-3.17-4.7-5.19-6.57-1.41-1.31-4.18-2.88-5.37-2.31-2.1,1.01-3.97,3.34-4.93,5.56-.56,1.3.3,3.93,1.42,5.1,3.05,3.18,6.58,5.9,10.69,9.48Zm124.3-108.1c.08,0,.17-.01.25-.02-.25-3.98-.5-7.96-.74-11.94-.79-13.09-1.71-26.18-2.29-39.28-.21-4.71-2.82-8.67-7.06-8.51-4.53.17-5.25,3.74-5.6,7.41-1.35,14.18-.73,28.29,2.65,42.12,1.57,6.42,4.18,12.61,6.78,18.72.59,1.38,3.04,1.98,4.64,2.93.59-1.65,1.53-3.26,1.7-4.95.22-2.12-.19-4.31-.32-6.47Zm-416.97-53.07c-1.1.33-1.56.63-1.99.58-6.54-.75-7.26-.03-5.89,6.61.8,3.88,1.24,7.26-2.36,10.41-2.73,2.4-1.32,7.48,2.02,9.4,3.65,2.09,5.46.1,6.86-3.09.73-1.66,1.72-3.23,2.8-4.69,5.59-7.46,9.69-15.44,9.72-25.09.01-3.68-.77-5.8-5.15-5-1.3.24-3.09-.69-4.19-1.63-.4-.34.36-3.16.96-3.3,1.4-.33,3.47-.26,4.47.59,2.84,2.41,4.91,1.77,6.34-1.15,2.18-4.46,4.08-9.07,5.94-13.68.29-.72,0-2.12-.55-2.61-.59-.52-1.94-.66-2.72-.35-1.02.4-1.93,1.29-2.67,2.17-3.65,4.36-7.76,7.49-13.86,7.87-1.57.1-3.8,2.89-4.29,4.82-1.69,6.56.11,12.66,4.56,18.12Zm376.61,197.66c-.68.13-1.36.26-2.05.39.79,1.69,1.58,3.38,2.37,5.08,1.37-1.15,3.35-2.02,3.99-3.49,2.08-4.78,3.62-9.79,5.47-14.68.75-1.98,1.24-4.47,2.71-5.7,6.19-5.17,6.31-11.35,4.49-18.48-.92-3.59-.83-7.52-.63-11.27.22-3.96,1.46-7.88,1.57-11.84.05-1.74-1.6-3.52-2.48-5.28-1.47,1.09-3.61,1.87-4.27,3.32-1.29,2.81-1.65,6.02-2.56,9.02-1.23,4.07-1.66,8.86-4.14,11.98-4.62,5.82-5.5,12.36-5.63,19.07-.13,7.28.73,14.58,1.16,21.87ZM46.61,496.46c-.7-1.21-1.31-3.57-2.3-3.74-2.06-.36-4.7-.17-6.43.88-5.21,3.19-10.49,4.8-16.58,3.3-4.61-1.14-12.1,2.21-13.65,5.92-1.62,3.88.48,7.59,6.53,10.79,1.99,1.05,4.36,1.47,6.61,1.96,3.54.77,7.26.96,10.66,2.1,4.25,1.44,7.68.36,9.28-3.33,2.41-5.59,3.87-11.59,5.89-17.89Zm176.13-179.52c2.45-2.16,10.78-2.91,13.77-1.74,1.85.73,4.23,1.06,6.02.48.73-.24.63-3.37.69-5.19.07-1.98.33-4.13-.32-5.9-.7-1.94-2.02-4.13-3.71-5.05-1.1-.61-3.4.67-5.05,1.38-8.02,3.42-10.81,2.49-15.45-4.66-.93-1.43-3.05-2.09-4.63-3.1-.7,1.72-2.06,3.48-1.95,5.14.21,3.09,2.31,6.31,1.81,9.15-1.33,7.51-1.5,14.43,3.85,20.6.77.89.54,2.58.99,3.82.47,1.27,1.2,2.44,1.88,3.78,7.86-6.28,8.47-13.6,2.08-18.69Zm87.61,167.82c7.77.82,11.66-4.96,15.57-10.6,2.2-3.17,2.43-6.58-.09-9.68-2.43-2.99-5.72-4.22-9.33-2.5-5.64,2.69-11.11,5.71-16.64,8.62-4.16,2.19-4.89,4.73-2.58,8.87,2.82,5.06,7.78,5.01,13.06,5.29Zm-208.61,17.31c-7.4.04-13.04,2.44-16.79,9.42-3.33,6.2-2.99,9.33,3.47,12.13,2.17.94,4.8,1.14,7.21,1.1,6.35-.11,10.86-3.8,14.45-8.56,1.76-2.33,4.47-5.77,3.79-7.66-.87-2.43-4.58-4.02-7.29-5.56-1.35-.76-3.21-.61-4.84-.88Zm-37.84-101.15c-3.28.49-6.75.48-9.77,1.63-2.18.83-5.05,3.04-5.3,4.93-.29,2.23,1.29,6,3.17,6.97,6,3.1,12.39,5.63,18.88,7.55,4.36,1.3,6.7-2,5.33-6.54-.58-1.91-1.39-3.76-1.78-5.71-1.39-6.92-3.28-8.51-10.53-8.84Zm370.08,254.26c-.56.27-1.12.54-1.68.81.87,2.28,1.26,4.95,2.7,6.78,4.58,5.83,9.74,11.2,14.32,17.03,2.65,3.38,4.34,7.51,6.99,10.89,1.29,1.64,4.29,3.69,5.63,3.19,3.48-1.3,1.99-4.49.64-6.73-2.08-3.44-3.02-6.65-1.86-10.8,1.27-4.55-1.18-8.06-5.04-9.61-3.79-1.53-7.51-3.3-11.12-5.23-3.62-1.94-7.06-4.21-10.58-6.34Zm3.24,30.78c.49-.83.98-1.67,1.47-2.5-3.26-3.11-6.31-6.51-9.84-9.28-7.15-5.62-14.48-11.02-21.95-16.21-1.3-.9-3.83-.83-5.4-.22-.8.31-1.51,3.29-.93,4.3,3.04,5.28,6.17,10.59,10,15.3,1.33,1.63,4.75,1.57,7.22,2.25,2.76.77,5.56,1.39,8.27,2.29,3.76,1.25,7.44,2.71,11.16,4.07ZM156.15,417.95c3.87.65,7.3,1.65,10.75,1.71,6.77.11,13.81-1.51,20.26-.15,6.09,1.28,11.45.93,16.93-1.09,1.59-.59,2.77-2.27,4.14-3.46-1.39-.97-2.74-2.7-4.19-2.79-9.94-.57-19.83-4.5-29.85-.61-5.65,2.19-12.92-1.25-18.04,6.38Zm390-170.61c-.52,1.77-1.58,3.4-1.21,4.59.72,2.33,1.89,4.7,3.47,6.55,8.95,10.45,19.64,18.74,31.95,24.9.85.43,2.11.03,3.18.02-.07-1.07.06-2.22-.28-3.2-.31-.89-1.04-1.72-1.76-2.38-10.52-9.61-21.07-19.19-31.65-28.73-.69-.62-1.74-.85-3.7-1.75Zm-416.41,105.96c1.23-.6,3.66-1.47,5.63-2.95.52-.39.16-3.17-.66-3.94-3.79-3.58-7.69-7.13-11.93-10.15-4.22-3.01-8.79-5.62-13.44-7.92-1.75-.87-4.17-.37-6.29-.5.12,2.12-.25,4.45.52,6.31.62,1.48,2.68,2.32,4,3.54,1.17,1.09,2.52,2.16,3.26,3.53,3.79,7.05,9.42,11.22,18.91,12.07Zm135.43,254.95c6.26-1.21,11.62-1.76,16.65-3.36,5.28-1.68,6.75-8.22,3.15-11.67-5.32-5.09-12.93-5.23-18.4-.27-1.72,1.56-3.66,3.05-4.87,4.97-1.21,1.92-2.79,4.88-2.09,6.41.88,1.93,3.92,2.86,5.57,3.92Zm-65.24-266.69c-.72.34-1.44.68-2.16,1.02,1.26,2.65,1.95,5.92,3.93,7.81,2.42,2.3,5.9,3.52,8.98,5.1,3.54,1.82,5.99.19,5.52-3.8-.21-1.75-.9-3.56-1.8-5.09-4.15-7.1-8.51-14.06-12.66-21.16-2.5-4.29-6.1-6.51-8.62-4.53-4.27,3.34-.36,6.07,1.09,8.96,1.94,3.88,3.82,7.8,5.72,11.7Zm185.47,343.43c5.12-.95,9.22-1.81,9.66-6.43.44-4.6-2.96-7.1-6.98-8.55-2-.72-4.4-.76-6.06-1.92-4.73-3.29-9.09-7.11-13.78-10.45-1.23-.88-3.16-.77-4.78-1.11.17,1.52-.19,3.41.58,4.5,4.89,6.87,9.86,13.72,15.21,20.23,1.6,1.94,4.53,2.79,6.14,3.73Zm144.05-113.72c-.63.07-1.26.14-1.9.22,0,1.85-.08,3.71.02,5.55.14,2.82.37,5.63.62,8.44.73,8.4,1.41,16.8,2.32,25.18.12,1.07,1.38,2.76,2.22,2.84,1.21.11,3-.68,3.71-1.68,2.44-3.42,3.02-7.15,1.58-11.35-1.16-3.39-1.64-7.03-2.28-10.58-1.18-6.55-.92-13.61-6.29-18.62Zm-287.7-129.63c-.76-2.44-1.4-5.93-2.94-8.97-1.04-2.06-3.34-3.5-5.07-5.21-1.1,2.07-2.42,4.05-3.25,6.22-1.75,4.57-3.27,9.24-4.84,13.88-.57,1.69-1.44,3.42-1.46,5.14-.04,3.13,2.5,5.28,4.82,3.65,4.49-3.17,8.24-7.41,12.19-11.31.46-.46.28-1.58.54-3.38Zm-95.52-55.17c.22-.51.44-1.02.65-1.53-1.07-.92-2.08-1.92-3.21-2.76-5.61-4.17-11.3-8.22-16.86-12.46-3.17-2.42-5.91-5.51-9.31-7.48-1.7-.98-4.46-.11-6.74-.08.48,2.07.26,4.94,1.56,6.08,8.67,7.62,18.31,13.8,29.29,17.64,1.43.5,3.07.41,4.61.59Zm522.51-189.24c-.68.21-1.37.41-2.05.62-2,6.71-2.43,13.33.52,20.14,2.49,5.75,4.41,11.75,6.59,17.64.61,1.64,1.22,3.28,1.84,4.92.46-.03.93-.06,1.39-.09,1.64-4.22,2.3-9.2.4-13.03-3.75-7.54-4.73-15.45-5.8-23.52-.31-2.32-1.89-4.46-2.88-6.69Zm-213.76,403.72c-1.33,1.86-3.64,3.63-3.67,5.44-.07,3.7,1.06,7.42,1.85,11.1.02.08,1.82-.38,2.76-.31,2.36.17,4.91,0,7,.88,2.63,1.09,4.77,2.56,6.64-.9,1.68-3.1,1.27-5.74-1.54-7.89-2.62-2.01-5.25-4.01-7.97-5.87-1.19-.82-2.62-1.29-5.07-2.45Zm-22.2,196.27c1.98,1.54,3.85,2.64,5.27,4.17,6.04,6.49,6.12,6.53,12.12-.54,1.07-1.27,2.75-2.3,3.2-3.74.6-1.95,1.17-5.08.15-6.09-1.4-1.39-4.74-2.33-6.47-1.61-4.79,1.99-9.19,4.95-14.27,7.82Zm-167.08-503.23c-.07-.1-.73-1.88-1.94-2.43-.85-.39-3.12.54-3.61,1.48-1.88,3.57-4.12,7.27-4.66,11.14-.55,3.97.49,8.25,1.32,12.3.31,1.49,1.99,2.7,3.05,4.04,1.07-1.3,2.86-2.49,3.08-3.92,1.09-7.02,1.77-14.1,2.76-22.61Zm-87.73,237.71c.04-5.2-2.7-7.21-7.98-6.81-2.94.22-5.81,1.32-8.72,2.03,1.41,2.51,2.61,5.17,4.27,7.5,1.93,2.73,4.66,5.95,8.06,3.91,2.41-1.44,3.46-5.15,4.37-6.63Zm-17.85-211.6c-.55-4.69-9.68-12.44-13.99-11.66-3.03.55-3.64,3.29-1.32,6.15,2.09,2.57,4.06,5.27,6.39,7.61,1.6,1.61,3.74,2.68,5.64,3.99,1.09-2.03,2.19-4.05,3.28-6.08Zm-23.86,79.45c-6.93-10.61-22.63-12.99-30.5-8.79,10.48,2.6,19.87,7.97,30.5,8.79Zm66.72-126.84c.31-.33.62-.65.93-.98-1.66-1.64-3.12-4.35-5.02-4.7-3.46-.64-4.77,2.17-4.83,5.43-.04,2.65-.71,5.44-.09,7.92.46,1.85,2.52,3.3,3.87,4.93,1.35-1.23,3.41-2.23,3.9-3.74.9-2.8.88-5.9,1.24-8.87Zm-64.23,57.86c-.03,5.49,6.03,12,12.68,13.88,1.43.41,3.11-.08,4.68-.16-.3-1.68-.15-3.64-.98-4.98-3.64-5.87-9.67-7.51-16.38-8.74Zm355.9,291.45c-7,4.57-7.89,11.59-2.93,15.66,1.23,1.01,3.6,1.92,4.76,1.39,1.2-.56,2.44-3.1,2.15-4.46-.87-4.09-2.47-8.02-3.97-12.6ZM217.09,250.2c-1.39,2.52-2.54,3.66-2.54,4.79,0,3.6.16,7.26.9,10.77.19.91,3.66,2.2,4.02,1.82,2.11-2.25,5.62-5.42,5.12-7.37-.86-3.35-4.32-6.03-7.5-10Zm249.13,398.78c-2.07-2.63-3.71-5.21-5.9-7.17-.67-.6-4.1.35-4.15.81-.3,2.72.03,5.52.18,8.29.02.31.18.73.41.89,1.78,1.23,3.59,2.4,5.39,3.59,1.18-1.86,2.36-3.72,4.07-6.4Zm-56.43-13.17c-.71,1.98-2.01,3.79-1.55,4.6,2.01,3.57,4.31,7.05,7.01,10.13.78.89,3.21.34,4.88.45-.06-1.67.45-3.66-.28-4.95-1.54-2.72-3.63-5.16-5.7-7.54-.79-.91-2.13-1.35-4.36-2.7Zm301.17-96.15c2.49-2.81,4.86-5.28,6.93-7.98.37-.49-.51-2.77-.73-2.76-2.93.19-5.86.6-8.77,1.04-.44.07-.94.45-1.2.83-1.09,1.63-2.09,3.32-3.13,4.99,1.93,1.08,3.85,2.17,6.89,3.87Zm-281.64,103.57c1.68,1.82,3.36,3.63,5.04,5.45,2.27-2.35,5.6-4.35,6.52-7.15,1.09-3.31-2.4-4.65-5.37-4.8-3.74-.18-5.33,2.03-6.18,6.49Zm252.09-333.96c-.56-.07-1.12-.14-1.68-.2-1.78,7.71-2.17,15.52-.9,23.4.16.99,1.27,1.83,1.94,2.74.6-1.03,1.74-2.08,1.71-3.09-.23-7.62-.68-15.23-1.07-22.84Zm-499.89,4.06c-3.51-2.84-6.02-5.13-8.87-6.87-.38-.23-3.19,2.13-3.57,3.62-.63,2.47,5.03,6.71,8.18,6.27,1.06-.15,1.97-1.35,4.26-3.03Zm491.38,108.78c-.53-.14-1.05-.28-1.58-.42-1.19,3.84-2.75,7.62-3.36,11.55-.2,1.27,2.12,2.93,3.28,4.42,1.01-1.44,2.86-2.88,2.87-4.33.03-3.73-.75-7.47-1.21-11.21Zm-499.06-78.43c4.01,2.53,9.58,2.25,10.72-.68.49-1.25-.14-3.72-1.16-4.63-2.87-2.57-5.25-1.17-9.56,5.31Zm305.06,286.71c-2.59-2.51-4.43-4.28-6.26-6.06-1.05,1.62-3.19,3.47-2.91,4.82.48,2.32,2.47,4.34,3.83,6.48,1.48-1.45,2.97-2.91,5.34-5.24Zm-44.98-5.81c.66-.04,1.32-.09,1.98-.13,1.02-1.61,3.24-3.73,2.82-4.71-.93-2.14-3.2-3.69-4.93-5.49-1.14,1.6-3.28,3.28-3.17,4.79.14,1.92,2.11,3.7,3.3,5.55Zm-294.79-207.72c5.26,4.24,10.3,4.95,15.04,2.36-3.73-3.84-9.56-4.86-15.04-2.36Zm536.47-14.6c-3.15,5.34-3.18,12.85-.33,16.14,2.24-5.21,3.31-10.24.33-16.14Zm-495.58-110.87c-.03-.54-.06-1.08-.09-1.62-1.81-.8-3.62-2.15-5.45-2.18-1.03-.02-2.1,2.14-3.16,3.31,1.37,1.15,2.7,3.15,4.11,3.21,1.49.06,3.05-1.73,4.58-2.72Zm95.78-2.15c1.69-2.17,3.49-3.52,3.29-4.41-.37-1.58-1.95-2.87-3.03-4.28-1.2,1.05-3.37,2.11-3.35,3.14.03,1.54,1.6,3.05,3.1,5.55Zm14.63-47.26c-1.66-1.21-2.64-2.47-3.57-2.42-.8.04-2.24,1.66-2.13,2.38.15.97,1.42,2.25,2.4,2.45.72.15,1.76-1.22,3.29-2.41Z"/>
      <path class="cls-1" d="m109.65,802.24c1.56.1,3.12.22,4.69.29,1.81.09,3.82.66,5.39.08,2.04-.75,4.33-2.09,5.34-3.85.52-.9-1.11-3.73-2.46-4.89-5.66-4.88-11.58-9.45-17.39-14.14-.77-.63-1.88-1.23-2.12-2.05-.64-2.15-.88-4.42-1.28-6.64,2.27.08,4.69-.29,6.78.37,1.59.5,2.57,2.83,4.16,3.4,2.1.76,4.55.87,6.83.77,1.94-.08,4.91-1.83,5.57-1.12,1.5,1.61,2.41,4.25,2.57,6.54.3,4.43-.42,8.94-.06,13.37.18,2.17,1.77,4.24,2.81,6.31,1.22,2.44,3.33,4.74,3.63,7.27.52,4.47-3.25,6.54-7.27,4.65-5.04-2.36-10.16-4.53-15.2-6.89-.95-.44-1.65-1.41-2.46-2.14.16-.45.32-.9.48-1.35Z"/>
      <path class="cls-1" d="m65,764.46c.37,1.41,1.02,2.82,1.06,4.24.22,9.29,5.38,16.13,11.05,22.74,3.84,4.48,8.56,7.16,14.62,7.44,2.07.1,4.2.87,6.1,1.74.78.36,1.62,1.98,1.41,2.73-.22.76-1.66,1.52-2.65,1.66-10.82,1.47-23.89-5.47-28.41-15.41-2.69-5.9-8.13-10.86-6.86-18.22.42-2.43,1.25-4.78,1.9-7.17.59.09,1.19.17,1.78.26Z"/>
      <path class="cls-2" d="m535.22,659.44c-.26,2.68-.79,4.96-.6,7.18.13,1.55,1.18,4.23,1.92,4.27,1.63.08,4.07-.75,4.84-2.01,1.82-3.02,3.32-2.12,5.06-.34,1.28,1.3,2.14,3.48,3.62,3.98,1.52.51,4.97-.17,5.17-.95,2-7.78,3.85-15.57-1.61-23.1-1.21-1.67-1.06-6.22.3-7.51,4.11-3.89,2.69-7.96,1.48-11.97-.51-1.69-2.64-2.9-4.04-4.33-1.2,1.62-3.53,3.34-3.41,4.85.44,5.34-2.26,8.71-5.74,12.02-2.66,2.53-3.23,5.34-.02,8.09,1,.86,1.67,2.09,2.65,2.97,2.53,2.28,1.71,4.76-.16,6.54-1.22,1.17-3.43,1.56-5.26,1.75-1.14.12-2.39-.77-4.2-1.43Z"/>
      <path class="cls-1" d="m588.23,677.23c.14-.45.28-.89.41-1.34,1.34-.64,2.87-1.05,3.99-1.97,5.1-4.2,5.93-4.56,12.17-4.25.28.01.57-.28.95-.48,0-1.41,0-2.86,0-4.3,0,0-.16-.04-.16-.04.73,0,1.46.01,2.2.02l.08-.02c2.83-.24,4.91-1.26,4.68-4.61v.15c-.71-.5-1.43-1-2.14-1.5.3-5.63-.89-11.74,5.72-15.15.84-.43.92-2.92.84-4.43-.2-3.38.07-6.05,3.94-7.52,1.6-.61,2.53-3,3.74-4.6.93-1.23,1.78-3.52,2.75-3.57,8.36-.39,11.94-7.86,18.05-11.56,5.09,5,4.38,9.3-2.52,11.69-4.37,1.51-3.96,3.3-1.24,5.84,2.56,2.39,3.96,5.27,2.19,8.43-2.56,4.55-5.93,8.65-8.44,13.23-1.21,2.21-1.24,5.07-1.81,7.64-.12.12-.24.25-.37.37-6.21,1.55-8.2-4-11.33-7.46-1.51,1.18-2.55,1.97-3.55,2.8-.23.2-.34.55-.5.83.06.32.01.73.2.95,1.3,1.51,2.71,2.92,3.96,4.47,3.58,4.41,3.07,6.24-2.41,7.18-2.9.5-2.7,1.94-2.77,4.16-.08,2.38-1.03,4.74-1.6,7.11-2.11-.98-4.23-1.96-6.34-2.94-.43-.2-.87-.37-1.54-.65-3.72,3.65-1.23,7.08.39,10.34,1.55,3.13,1.6,4.66-2.31,6.27-3.92,1.61-9.2,4.35-10.19,7.68-1.6,5.39-5.31,7.39-9.08,9.8-2.5,1.6-4.84-.19-4.28-2.59.82-3.49,2.37-7.19,4.68-9.88,5.26-6.14,6.22-13.8,1.63-20.08Zm49.04-39.52c-2.01-1-4.28-2.96-5.24-2.45-2.82,1.49-5.33,3.77-7.45,6.19-.52.6.74,2.98,1.54,4.34.16.27,2.15-.08,2.88-.67,2.51-2.03,4.82-4.29,8.27-7.42Z"/>
      <path class="cls-1" d="m187.79,369.67c2.43.43,5.17.32,7.22,1.45,1.97,1.1,4.25,3.33,4.56,5.35.45,2.9-.78,5.92-4.96,5.92-1.39,0-3.2.49-4.1,1.43-3.29,3.43-6.04,2.24-8.94-.42-3.6-3.3-7.04-6.85-10.99-9.67-3.55-2.53-7.66-2.53-11.48.07-2.35-7.79.15-10.59,8.14-9.11,1.14.21,2.27.44,3.41.66q7.45,1.41,11.14-5.58s-.2-.09-.2-.09c.77.6,1.47,1.56,2.33,1.75,4.98,1.1,6.31,3.85,4.09,8.4,0,0-.17.2-.17.2l-.06-.36Z"/>
      <path class="cls-1" d="m359.89,804.52c-2.72-3.6-5.9-3.98-10.56-3.74-6.26.32-13.35,1.68-19.46-3.66,3.04-3.6,7.29-4.03,11.38-4.06,3.61-.03,7.28.56,10.83,1.33,3.57.78,5.55-.99,6.56-3.78,1-2.77,2.09-6.46,5.19-4.19,1.83,1.35,2.17,6.2,1.51,9.09-.73,3.16-3.39,5.88-5.2,8.79-.09-.02-.18.05-.25.22Z"/>
      <path class="cls-1" d="m308.43,787.77c2.45,1.91,4.9,3.82,7.34,5.73-.32.68-.63,1.37-.95,2.05-1.8-.3-4.01-.06-5.32-1.03-2.36-1.74-3.03-4.3-.63-6.81,0,0-.44.05-.44.05Z"/>
      <path class="cls-1" d="m518.24,411.68c1.33,0,2.66,0,4,0,2.87.02,6.1.71,5.61,4.01-.33,2.2-2.99,5.53-4.87,5.72-4.83.48-10.07.35-14.68-1.07-21.3-6.57-42.38-13.61-65.2-12.85-11.6.39-21.28,4.83-29.08,12.54-8.58,8.48-15.95,18.19-23.82,27.38-1.62,1.89-3.45,3.69-4.65,5.83-.98,1.74-1.91,4.15-1.43,5.86.34,1.22,2.97,2.12,4.73,2.58,9.18,2.39,14.89,9.11,19.78,16.4,3.41,5.09,6.15,6.05,11.15,2.41,10.08-7.34,20.26-14.54,30.44-21.75,6.06-4.29,12.58-3.92,18.29-.06,6.3,4.25,11.92,9.53,17.71,14.5,3.39,2.91,6.74,5.93,9.72,9.24,1.51,1.69,2.46,4.07,3.03,6.3.16.64-2.07,2.78-2.87,2.62-2.22-.46-4.75-1.29-6.28-2.84-7.79-7.87-14.42-16.97-24.87-21.9-4.16-1.96-7.73-1.67-11.85.3-13.55,6.5-24.14,16.98-35.96,25.83-7.75,5.81-15.88,10.83-26.29,11.99-11.82,1.31-23.79-12.5-23.86-24.98-.06-9.73,3.63-17.96,8.7-25.54,6.93-10.34,14.41-20.37,22.34-29.96,4.5-5.44,10.38-9.74,15.62-14.58,2.05-1.9,3.9-4.05,6.1-5.74,1.46-1.11,3.34-2.03,5.14-2.28,6.44-.91,12.21-2.27,15.63-8.94,1.4-2.74,4.86-4.42,7.35-6.62,4.6-4.09,8.98-8.47,13.86-12.19,1.91-1.45,4.92-1.46,7.42-2.12-.69,2.83-.49,6.53-2.24,8.32-3.43,3.51-7.95,5.95-12.02,8.84-1.22.86-2.79,1.51-3.54,2.68-.91,1.41-1.75,3.43-1.39,4.89.23.97,2.64,2.05,4.03,1.99,9.92-.38,18.89,3.25,28.17,5.87,11.81,3.33,23.87,5.74,35.83,8.55.08-.41.17-.82.25-1.23Zm-126.84,86.33c4.29-2.23,8.86-4.09,12.74-6.89,1.34-.97,2.1-5.4,1.17-6.37-5.38-5.59-11.01-11.09-17.24-15.69-4.51-3.34-10.89-.75-12.94,4.15-4.21,10.04,4.84,23.68,16.27,24.8Z"/>
      <path class="cls-1" d="m509.77,340.38c5.15.05,15.65,9.63,15.57,14.21-.09,5.25-10.06,14.2-15.62,14.03-5.44-.17-14.18-9.46-14.12-15,.05-4,9.98-13.28,14.17-13.24Z"/>
      <path class="cls-1" d="m295.79,348.62c-5.51-.01-13.45-8.4-13.3-14.04.14-5.19,7.13-12.34,11.95-12.24,7.09.14,14.36,6.26,14.33,12.05-.04,6.52-7.09,14.25-12.99,14.24Z"/>
      <path class="cls-1" d="m467.71,323.38c-.68-.28-2.33-.54-3.32-1.48-2.99-2.84-5.99-5.76-8.42-9.06-.9-1.22-.92-4.24-.02-5.28.82-.95,4.08-1.12,5.17-.25,4.96,3.91,9.18,3.14,13.9-.47,1.31-1,4.3-.84,5.89,0,.85.44.86,3.61.36,5.28-1.71,5.77-8.07,11.15-13.57,11.27Z"/>
      <path class="cls-1" d="m324.06,313.06c-5.31-.03-11.07-7.98-9.43-12.69.3-.85,2.2-2.01,2.83-1.75,5.78,2.38,10.99.61,16.33-1.51,1.22-.49,3.56-.13,4.33.76.79.9.95,3.63.21,4.36-3.72,3.67-7.78,6.99-11.83,10.3-.67.55-1.9.42-2.44.52Z"/>
      <path class="cls-1" d="m379.96,372.33c3.5,1.33,7.77,2.66,11.72,4.63,1.07.53,1.18,3,1.72,4.59-1.51.28-3.26,1.19-4.49.73-6.61-2.45-13.25-2.88-20.16-1.67-1.27.22-2.79-1.01-4.2-1.58.96-1.17,1.7-2.96,2.91-3.39,3.75-1.31,7.68-2.09,12.5-3.32Z"/>
      <path class="cls-1" d="m416.42,338.7c2.35,1.96,3.96,3.31,5.58,4.66-1.52,1.26-2.95,2.65-4.58,3.75-2.81,1.9-5.73,3.64-8.62,5.42-1.64,1.02-3.21,2.56-4.99,2.87-2.9.5-5.23-3-3.23-4.79,4.73-4.23,10.13-7.71,15.84-11.91Z"/>
      <path class="cls-1" d="m346.9,340.06c5.39,0,11.68,4.18,13.15,8.41.37,1.06.22,2.94-.47,3.53-.71.61-2.61.53-3.58,0-3.49-1.91-6.91-3.99-10.13-6.33-.97-.7-1.87-2.63-1.58-3.64.3-1.04,2.11-1.63,2.6-1.97Z"/>
      <path class="cls-1" d="m456.58,758.67c-1.72.84-3.62,1.44-5.11,2.58-3.07,2.35-6.12,1.65-6.33-2.08-.39-6.91-3.24-11.57-9.9-14.02-1.44-.53-2.36-2.55-3.48-3.92-1.03-1.26-1.76-3.28-3.06-3.74-4.81-1.68-4.92-5.4-4.59-9.34.48-5.64-1.57-9.03-6.82-11.93-1.67-.92-3.64-2.8-3.92-4.49-.74-4.55-1.74-8.71-5.45-11.85-.61-.52-.57-1.8-.04-3.72,1.55,1.1,3.38,1.96,4.6,3.36,2.92,3.36,6.02,5.42,10.75,3.97,3.74-1.15,6.7-.07,10.45,1.93,5.78,3.08,12.82,4.3,19.46,5.03,3.85.42,6.42,1.03,8.56,4.41,1.27,2.01,3.68,3.3,5.6,4.88.75.62,1.98,1.01,2.28,1.78,2.52,6.45,8.12,9.53,13.56,12.89,5.37,3.32,5.24,6.58-.2,9.81-4.64,2.75-4.47,3.89-2.33,9.15,1.56,3.83,2.09,8.26,2.15,12.44.03,1.89-1.83,5.02-3.44,5.49-5.13,1.5-10.53,2.24-15.88,2.83-2.67.29-4.13-1.67-3.17-4.25,1.88-5.01-.93-8.19-3.91-11.41,0,0,.2.21.2.21Zm-17.39-30.82c-.05-.45-.1-.91-.15-1.36,2.95-.75,5.93-1.41,8.83-2.31.99-.31,1.96-1.08,2.6-1.91.24-.31-.29-1.61-.8-2.06-2.27-1.96-12.05-.02-14.23,2.76,1.29,1.21,2.59,2.42,3.88,3.64-1.49.59-2.99,1.17-4.48,1.76v-.14c0,.71,0,1.43,0,2.14v-.14c1.08-.12,2.17-.24,3.25-.37.36-.67.73-1.34,1.09-2.02Zm31.05,5.66l.27.17c-6.73-1.08-7.76,5.53-11.24,8.71-.8.73-.21,4.71.94,5.55,3.48,2.55,5.88,8.14,12.67,5.29-1.46-1.68-2.52-3.05-3.74-4.28-4.25-4.26-4.19-6.44-.22-10.77.98-1.07.91-3.09,1.32-4.68Zm-23.04,14.07l1.77-.36c.17-2.18.71-4.42.37-6.52-.19-1.2-1.83-2.16-2.81-3.23-.82,1.41-2.47,2.97-2.26,4.21.35,2.07,1.89,3.94,2.92,5.9Z"/>
      <path class="cls-2" d="m456.58,758.67s-.2-.21-.2-.21.2.21.2.21Z"/>
      <path class="cls-1" d="m535.22,659.44c1.8.66,3.06,1.55,4.2,1.43,1.83-.19,4.04-.58,5.26-1.75,1.86-1.78,2.68-4.26.16-6.54-.98-.88-1.65-2.11-2.65-2.97-3.2-2.75-2.63-5.56.02-8.09,3.48-3.32,6.18-6.68,5.74-12.02-.12-1.51,2.2-3.23,3.41-4.85,1.39,1.43,3.52,2.63,4.04,4.33,1.21,4.01,2.63,8.08-1.48,11.97-1.36,1.29-1.51,5.84-.3,7.51,5.46,7.53,3.62,15.32,1.61,23.1-.2.78-3.65,1.47-5.17.95-1.48-.5-2.35-2.67-3.62-3.98-1.74-1.78-3.24-2.67-5.06.34-.77,1.27-3.21,2.09-4.84,2.01-.74-.04-1.79-2.72-1.92-4.27-.19-2.22.34-4.5.6-7.18Z"/>
      <path class="cls-1" d="m646.27,760.87c-1.46-.13-2.93-.15-4.37-.41-5.7-1.03-11.39-2.14-17.93-3.38,0,2.84.36,4.23-.08,5.28-.69,1.68-1.61,4.08-2.97,4.53-6.27,2.08-12.69,3.23-19.18.28-1.66-.75-3.81-.81-5.68-.64-4.37.38-8.71,1.21-13.08,1.58-1.13.1-2.45-.67-3.51-1.32-5.53-3.36-10.37-7.97-17.86-6.94-3.11.43-6.66-.96-7.47-5.12,5.02-.44,10.08-.64,15.03-1.5,1.06-.18,1.77-2.71,2.52-4.22.7-1.42.83-3.67,1.91-4.26,4.34-2.34,8.8-4.76,13.51-5.97,2.76-.71,6.12.68,9.17,1.35,2.61.57,4.06-.07,4.69-2.85,1.73-7.61,11.52-10.32,17.63-6.65,1.85,1.11,3.43,2.69,5.35,3.62,1.17.57,2.84.71,4.09.36,3.13-.86,6.09-2.76,9.23-3.05,4.7-.44,8.66-1.15,11.05-5.91.46-.92,3.97-1.58,4.63-.92,2.97,2.98,6.06,1.51,9.27,1.19,2.88-.28,5.82.02,8.74.07,0,0-.35-.24-.35-.24-1.65,9.4-4.37,17.99-14.68,21.65-1.66.59-2.7,2.78-4.2,4.03-2.37,1.97-4.64,2.93-5.92-1.21-.32-1.03-1.04-2.47-1.87-2.71-1.84-.52-3.86-.4-5.8-.54.42,1.78.4,3.83,1.34,5.27,2,3.04,4.5,5.76,6.79,8.61Zm-54.61-12.23c-2.56.3-3.87.41-5.17.6-3.26.47-4.52,2.37-3.85,5.56.76,3.69,3.14,3.08,5.68,2.14,1.06-.39,2.41-.38,3.2-1.05,1.49-1.27,2.67-2.91,3.98-4.4-1.52-1.13-3.04-2.26-3.84-2.86Zm64.65-19.05c-2.64,2.37-5.08,4.35-7.24,6.59-.79.81-.94,2.24-1.38,3.38,1.31.46,2.68,1.46,3.91,1.3,5.65-.73,7.78-5.71,4.72-11.28Z"/>
      <path class="cls-1" d="m670.6,725.77s.35.24.35.24c.52-2.27.64-4.8,1.78-6.7.44-.73,3.41-.49,4.89.13,1.01.42,2.02,2.33,1.9,3.44-.09.84-1.9,1.8-3.1,2.13-1.87.51-3.87.53-5.81.75Z"/>
      <path class="cls-1" d="m605.33,663.05c-1.18-5.23,2.57-4.24,5.47-4.34-.83.69-1.66,1.39-2.49,2.09,0,.01.13-.1.13-.1.29.71.57,1.43.86,2.14-.73.34-1.47.67-2.2,1.01,0,0,.14-.13.14-.13-.55.38-1.09.75-1.64,1.13,0,0,.16.04.16.04-.17-.65-.35-1.31-.53-1.97-.01,0,.1.13.1.13Z"/>
      <path class="cls-1" d="m609.3,663.78c-.48.35-.95.71-1.43,1.06,0,0-.08.02-.08.02-.19-.38-.37-.76-.56-1.15,0,0-.14.13-.14.13.74-.02,1.47-.05,2.21-.07Z"/>
      <path class="cls-1" d="m612.55,660.24c-.25.03-.5.06-.75.09.25.02.49.04.74.06,0,0,0-.15,0-.15Z"/>
      <path class="cls-2" d="m607.23,663.72c.19.38.37.76.56,1.15-.73,0-1.47-.01-2.2-.02.55-.38,1.09-.75,1.64-1.13Z"/>
      <path class="cls-1" d="m516.38,741.43c3.26-.58,7.24-.17,8.27-1.72,1.84-2.76.26-6.1-2.18-8.83-3.81-4.28-2.81-7.93,2.02-11.48,2.82-2.07,5.06-4.92,7.63-7.48,6.27,8.06,5.04,11.75-.06,16.48.87,2.1,2.51,4.24,2.45,6.33-.07,2.49-.91,6.03-2.66,7.15-2.94,1.88-3.47,3.8-3.47,6.91,0,7.1-3.8,10.39-10.26,9.65-3.58-.41-5.09-2-4.25-5.63.94-4.04,1.79-8.09,2.52-11.4Z"/>
      <path class="cls-1" d="m489.19,699.55c-.62-.97-1.56-2.66-2.72-4.19-.79-1.05-2.19-1.72-2.74-2.85-.57-1.17-.45-2.68-.64-4.04,1.35-.07,3.06-.71,4-.12,3.47,2.16,6.08,1.88,8.5-1.56.52-.73,2.35-1.22,3.17-.87.98.42,2.18,1.87,2.16,2.85-.13,4.97-.21,10.01-1.12,14.87-.74,3.96-4.35,2.53-7.05,2.4-3.46-.17-4.72-1.98-3.56-6.48Z"/>
      <path class="cls-1" d="m492.5,670.36c.73.52,3.76,1.52,4.1,3.1.96,4.46-3.27,9.69-7.12,9.67-4.29-.02-5.56-3.23-6.01-6.62-.47-3.56,2.79-6.03,9.03-6.15Z"/>
      <path class="cls-1" d="m409.4,767.71c2.09-1.22,3.27-2.35,3.74-2.11,1.91,1,3.6,2.41,5.37,3.67-.66.58-1.54,1.78-1.96,1.64-2.07-.7-4.02-1.75-7.15-3.21Z"/>
      <path class="cls-1" d="m370.19,706.29c4.76,1.88,9.71,3.39,14.19,5.78,2.22,1.18.45,6.49-2.28,7.74-5.39,2.46-11.09-.96-12.11-7.48-.3-1.91.09-3.93.17-5.9,0-.06.01-.1.03-.15Z"/>
      <path class="cls-1" d="m370.19,706.29s-.03.09-.03.15c-1.45.05-3.54.72-4.23.02-1.91-1.95-3.23-4.47-4.78-6.76,2.41-.57,4.93-1.87,7.22-1.56,3.56.49,3.22,3.6,2.61,6.33-.14.63-.52,1.22-.79,1.82Z"/>
      <path class="cls-1" d="m223.46,384.39c1.86-1.85,4.52-3.39,5.42-5.63,2.16-5.36,6.49-9.93,6.16-16.33-.05-1.01,1.96-2.63,3.3-3.01.72-.21,2.29,1.44,2.99,2.56,1.05,1.67,1.78,3.57,2.45,5.44,1.74,4.9.24,8.12-4.28,10.82-2.87,1.72-5.14,4.59-8.13,5.88-2.22.96-5.18.22-7.84.24-.02.01-.06.02-.06.02Z"/>
      <polygon class="cls-2" points="187.79 369.67 187.85 370.03 188.01 369.83 187.79 369.67"/>
      <path class="cls-2" d="m439.19,727.86c-.36.67-.73,1.34-1.09,2.02,0,0,.14.06.14.06,0-.74,0-1.49,0-2.23,0,0-.13.16-.13.16.39,0,.78.02,1.17.02,0,0-.08-.02-.08-.02Z"/>
      <path class="cls-2" d="m439.19,726.48s-.15.02-.15.02c.05.45.1.9.15,1.36,0,0,.08.02.08.02,0-.39-.02-.78-.02-1.16l-.06-.24Z"/>
      <path class="cls-1" d="m434.84,730.38l.49-.04s-.48-.1-.48-.1c0,0,0,.14,0,.14Z"/>
      <path class="cls-2" d="m470.23,733.52s.27.17.27.17c0,0-.27-.17-.27-.17Z"/>
      <path class="cls-2" d="m591.66,748.64c.8.6,2.32,1.73,3.84,2.86-1.31,1.49-2.49,3.12-3.98,4.4-.79.67-2.14.66-3.2,1.05-2.54.94-4.92,1.54-5.68-2.14-.66-3.19.6-5.09,3.85-5.56,1.3-.19,2.61-.31,5.17-.6Z"/>
      <path class="cls-2" d="m656.31,729.6c3.07,5.57.93,10.55-4.72,11.28-1.23.16-2.6-.84-3.91-1.3.44-1.15.59-2.57,1.38-3.38,2.17-2.24,4.6-4.23,7.24-6.59Z"/>
      <path class="cls-2" d="m609.3,663.78c-.74.02-1.47.05-2.21.07.73-.34,1.47-.67,2.2-1.01,0,0-.15-.11-.15-.11,0,.39,0,.79.01,1.18l.15-.13Z"/>
      <path class="cls-2" d="m608.43,660.7s-.13.12-.13.1c0-.01.13-.1.13-.1Z"/>
      <path class="cls-2" d="m605.33,663.05s-.12-.14-.1-.13c.01,0,.1.13.1.13Z"/>
      <path class="cls-1" d="m609.16,663.92c0-.39,0-.79-.01-1.18.4.1.8.2,1.19.31l-.09-.12-1.09.99Z"/>
      <path class="cls-1" d="m438.24,727.7c0,.74,0,1.49,0,2.23,0-.74,0-1.49,0-2.23Z"/>
      <path class="cls-1" d="m439.25,726.72c0,.39.02.78.02,1.16-.39,0-.78-.01-1.17-.02.38-.38.76-.76,1.14-1.14Z"/>
    </g>
  </g>
</svg>